# xmcd CD database file
#
# Track frame offsets:
#	150
#	13950
#	26020
#	37822
#	52887
#	65492
#	78625
#	92102
#	112417
#	132785
#	149190
#	160307
#
# Disc length: 2341 seconds
#
# Revision: 5
# Processed by: cddbd v1.5.2PL0 Copyright (c) Steve Scherf et al.
# Submitted via: CDex 1.95
#
DISCID=ac09230c
DTITLE=Steve Earle - I Feel Alright
DYEAR=1996
DGENRE=Country
TTITLE0=Feel Alright
TTITLE1=Hard-Core Troubadour
TTITLE2=More Than I Can Do
TTITLE3=Hurtin' Me, Hurtin' You
TTITLE4=Now She's Gone
TTITLE5=Poor Boy
TTITLE6=Valentine's Day
TTITLE7=The Unrepentant
TTITLE8=CCKMP
TTITLE9=Billy And Bonnie
TTITLE10=South Nashville Blues
TTITLE11=You're Still Standing There [with Lucinda Williams]
EXTD=YEAR: 1996
EXTT0=
EXTT1=
EXTT2=
EXTT3=
EXTT4=
EXTT5=
EXTT6=
EXTT7=
EXTT8=
EXTT9=
EXTT10=
EXTT11=
PLAYORDER=
